<svg xmlns="http://www.w3.org/2000/svg" xmlns:xlink="http://www.w3.org/1999/xlink" width="300" zoomAndPan="magnify" viewBox="0 0 224.87999 225" height="300" preserveAspectRatio="xMidYMid meet" version="1.0"><defs><g/><clipPath id="0619c3e34d"><path d="M 104 23 L 224.761719 23 L 224.761719 145 L 104 145 Z M 104 23 " clip-rule="nonzero"/></clipPath><clipPath id="18a97bf877"><rect x="0" width="121" y="0" height="122"/></clipPath><clipPath id="3b70f58bc6"><rect x="0" width="120" y="0" height="138"/></clipPath><clipPath id="e5f0c4942b"><rect x="0" width="79" y="0" height="139"/></clipPath></defs><g clip-path="url(#0619c3e34d)"><g transform="matrix(1, 0, 0, 1, 104, 23)"><g clip-path="url(#18a97bf877)"><g fill="#dbceb9" fill-opacity="1"><g transform="translate(10.569409, 56.658277)"><g><path d="M -2.53125 -8.859375 L -2.359375 -8.75 C -2.390625 -8.59375 -2.375 -8.398438 -2.3125 -8.171875 C -2.257812 -7.953125 -2.128906 -7.675781 -1.921875 -7.34375 L 0.125 -3.78125 L -0.109375 -3.40625 L -4.921875 -3.796875 C -5.179688 -3.828125 -5.359375 -3.820312 -5.453125 -3.78125 C -5.554688 -3.738281 -5.628906 -3.6875 -5.671875 -3.625 L -5.859375 -3.734375 C -5.742188 -3.867188 -5.632812 -4.007812 -5.53125 -4.15625 C -5.425781 -4.300781 -5.3125 -4.472656 -5.1875 -4.671875 C -5.03125 -4.898438 -4.863281 -5.15625 -4.6875 -5.4375 C -4.507812 -5.726562 -4.359375 -5.992188 -4.234375 -6.234375 L -4.046875 -6.125 C -4.128906 -5.988281 -4.195312 -5.859375 -4.25 -5.734375 C -4.300781 -5.609375 -4.3125 -5.503906 -4.28125 -5.421875 C -4.25 -5.347656 -4.160156 -5.300781 -4.015625 -5.28125 L -0.65625 -4.953125 L -0.484375 -4.5 L -1.640625 -6.453125 C -1.898438 -6.910156 -2.132812 -7.21875 -2.34375 -7.375 C -2.5625 -7.53125 -2.757812 -7.578125 -2.9375 -7.515625 C -3.113281 -7.460938 -3.28125 -7.320312 -3.4375 -7.09375 L -3.609375 -7.203125 C -3.472656 -7.378906 -3.347656 -7.546875 -3.234375 -7.703125 C -3.128906 -7.867188 -3.019531 -8.035156 -2.90625 -8.203125 C -2.832031 -8.328125 -2.765625 -8.441406 -2.703125 -8.546875 C -2.640625 -8.660156 -2.582031 -8.765625 -2.53125 -8.859375 Z M -0.78125 -5.21875 L 1.296875 -3.875 C 1.484375 -3.75 1.632812 -3.664062 1.75 -3.625 C 1.875 -3.59375 1.976562 -3.613281 2.0625 -3.6875 C 2.15625 -3.757812 2.257812 -3.878906 2.375 -4.046875 L 2.546875 -3.9375 C 2.441406 -3.789062 2.3125 -3.597656 2.15625 -3.359375 C 2 -3.128906 1.847656 -2.898438 1.703125 -2.671875 C 1.535156 -2.421875 1.378906 -2.175781 1.234375 -1.9375 C 1.085938 -1.707031 0.976562 -1.523438 0.90625 -1.390625 L 0.734375 -1.5 C 0.835938 -1.6875 0.898438 -1.828125 0.921875 -1.921875 C 0.953125 -2.023438 0.925781 -2.125 0.84375 -2.21875 C 0.757812 -2.320312 0.625 -2.4375 0.4375 -2.5625 L -1.265625 -3.65625 L -0.28125 -4.046875 Z M -0.78125 -5.21875 "/></g></g></g><g fill="#dbceb9" fill-opacity="1"><g transform="translate(16.146769, 48.675976)"><g><path d="M -2.078125 -7.8125 C -1.578125 -8.28125 -1.039062 -8.59375 -0.46875 -8.75 C 0.101562 -8.90625 0.671875 -8.890625 1.234375 -8.703125 C 1.804688 -8.523438 2.351562 -8.164062 2.875 -7.625 C 3.382812 -7.082031 3.722656 -6.515625 3.890625 -5.921875 C 4.066406 -5.328125 4.066406 -4.734375 3.890625 -4.140625 C 3.722656 -3.554688 3.394531 -3.03125 2.90625 -2.5625 C 2.40625 -2.09375 1.867188 -1.78125 1.296875 -1.625 C 0.722656 -1.476562 0.15625 -1.492188 -0.40625 -1.671875 C -0.976562 -1.859375 -1.519531 -2.222656 -2.03125 -2.765625 C -2.539062 -3.285156 -2.878906 -3.847656 -3.046875 -4.453125 C -3.210938 -5.054688 -3.210938 -5.648438 -3.046875 -6.234375 C -2.890625 -6.816406 -2.566406 -7.34375 -2.078125 -7.8125 Z M -1.96875 -7.640625 C -2.226562 -7.390625 -2.359375 -7.066406 -2.359375 -6.671875 C -2.359375 -6.273438 -2.226562 -5.835938 -1.96875 -5.359375 C -1.71875 -4.878906 -1.359375 -4.394531 -0.890625 -3.90625 C -0.410156 -3.394531 0.0625 -3.015625 0.53125 -2.765625 C 1 -2.515625 1.429688 -2.382812 1.828125 -2.375 C 2.234375 -2.375 2.5625 -2.492188 2.8125 -2.734375 C 3.070312 -2.984375 3.195312 -3.304688 3.1875 -3.703125 C 3.1875 -4.109375 3.054688 -4.550781 2.796875 -5.03125 C 2.546875 -5.507812 2.191406 -5.988281 1.734375 -6.46875 C 1.253906 -6.976562 0.773438 -7.359375 0.296875 -7.609375 C -0.171875 -7.859375 -0.597656 -7.984375 -0.984375 -7.984375 C -1.378906 -7.992188 -1.707031 -7.878906 -1.96875 -7.640625 Z M -1.96875 -7.640625 "/></g></g></g><g fill="#dbceb9" fill-opacity="1"><g transform="translate(24.707768, 41.196997)"><g><path d="M 2.25 -9.296875 L 2.34375 -9.125 C 2.175781 -9 2.0625 -8.867188 2 -8.734375 C 1.945312 -8.609375 1.953125 -8.460938 2.015625 -8.296875 C 2.078125 -8.128906 2.1875 -7.910156 2.34375 -7.640625 L 3.640625 -5.375 C 3.847656 -5.007812 4.015625 -4.65625 4.140625 -4.3125 C 4.265625 -3.976562 4.328125 -3.664062 4.328125 -3.375 C 4.328125 -3.050781 4.222656 -2.734375 4.015625 -2.421875 C 3.804688 -2.117188 3.488281 -1.84375 3.0625 -1.59375 C 2.789062 -1.445312 2.503906 -1.320312 2.203125 -1.21875 C 1.898438 -1.125 1.597656 -1.101562 1.296875 -1.15625 C 1.015625 -1.207031 0.769531 -1.296875 0.5625 -1.421875 C 0.351562 -1.554688 0.160156 -1.742188 -0.015625 -1.984375 C -0.203125 -2.222656 -0.398438 -2.53125 -0.609375 -2.90625 L -2.140625 -5.5625 C -2.265625 -5.78125 -2.367188 -5.929688 -2.453125 -6.015625 C -2.546875 -6.097656 -2.644531 -6.128906 -2.75 -6.109375 C -2.863281 -6.097656 -3.015625 -6.039062 -3.203125 -5.9375 L -3.296875 -6.109375 C -3.148438 -6.179688 -2.953125 -6.28125 -2.703125 -6.40625 C -2.460938 -6.539062 -2.210938 -6.6875 -1.953125 -6.84375 C -1.679688 -6.988281 -1.429688 -7.132812 -1.203125 -7.28125 C -0.972656 -7.425781 -0.78125 -7.546875 -0.625 -7.640625 L -0.53125 -7.46875 C -0.71875 -7.363281 -0.847656 -7.265625 -0.921875 -7.171875 C -1.003906 -7.078125 -1.03125 -6.96875 -1 -6.84375 C -0.976562 -6.726562 -0.90625 -6.5625 -0.78125 -6.34375 L 1.0625 -3.140625 C 1.21875 -2.859375 1.378906 -2.617188 1.546875 -2.421875 C 1.710938 -2.222656 1.878906 -2.078125 2.046875 -1.984375 C 2.210938 -1.890625 2.394531 -1.847656 2.59375 -1.859375 C 2.789062 -1.878906 3 -1.953125 3.21875 -2.078125 C 3.625 -2.304688 3.882812 -2.582031 4 -2.90625 C 4.113281 -3.226562 4.117188 -3.578125 4.015625 -3.953125 C 3.910156 -4.335938 3.734375 -4.75 3.484375 -5.1875 L 2.203125 -7.421875 C 2.023438 -7.734375 1.863281 -7.957031 1.71875 -8.09375 C 1.582031 -8.238281 1.4375 -8.316406 1.28125 -8.328125 C 1.132812 -8.335938 0.929688 -8.28125 0.671875 -8.15625 L 0.578125 -8.328125 C 0.691406 -8.378906 0.835938 -8.453125 1.015625 -8.546875 C 1.203125 -8.648438 1.367188 -8.742188 1.515625 -8.828125 C 1.648438 -8.910156 1.78125 -8.992188 1.90625 -9.078125 C 2.039062 -9.160156 2.15625 -9.234375 2.25 -9.296875 Z M 2.25 -9.296875 "/></g></g></g><g fill="#dbceb9" fill-opacity="1"><g transform="translate(33.914938, 36.385804)"><g><path d="M -1.6875 -6.734375 C -1.53125 -6.773438 -1.316406 -6.832031 -1.046875 -6.90625 C -0.773438 -6.976562 -0.503906 -7.054688 -0.234375 -7.140625 C 0.0664062 -7.222656 0.351562 -7.304688 0.625 -7.390625 C 0.894531 -7.484375 1.09375 -7.550781 1.21875 -7.59375 C 1.789062 -7.769531 2.289062 -7.851562 2.71875 -7.84375 C 3.144531 -7.832031 3.492188 -7.734375 3.765625 -7.546875 C 4.035156 -7.359375 4.222656 -7.09375 4.328125 -6.75 C 4.390625 -6.539062 4.40625 -6.316406 4.375 -6.078125 C 4.34375 -5.835938 4.25 -5.59375 4.09375 -5.34375 C 3.945312 -5.09375 3.707031 -4.859375 3.375 -4.640625 C 3.039062 -4.421875 2.597656 -4.226562 2.046875 -4.0625 L 1.15625 -3.796875 L 1.109375 -3.984375 L 1.921875 -4.21875 C 2.285156 -4.332031 2.539062 -4.484375 2.6875 -4.671875 C 2.84375 -4.867188 2.921875 -5.09375 2.921875 -5.34375 C 2.921875 -5.601562 2.878906 -5.878906 2.796875 -6.171875 C 2.640625 -6.671875 2.429688 -7.03125 2.171875 -7.25 C 1.921875 -7.46875 1.582031 -7.515625 1.15625 -7.390625 C 0.90625 -7.304688 0.757812 -7.203125 0.71875 -7.078125 C 0.6875 -6.953125 0.71875 -6.722656 0.8125 -6.390625 L 2.21875 -1.734375 C 2.28125 -1.515625 2.347656 -1.351562 2.421875 -1.25 C 2.492188 -1.144531 2.582031 -1.085938 2.6875 -1.078125 C 2.800781 -1.078125 2.957031 -1.101562 3.15625 -1.15625 L 3.21875 -0.96875 C 3.050781 -0.925781 2.835938 -0.867188 2.578125 -0.796875 C 2.316406 -0.722656 2.050781 -0.648438 1.78125 -0.578125 C 1.476562 -0.484375 1.195312 -0.394531 0.9375 -0.3125 C 0.675781 -0.226562 0.46875 -0.15625 0.3125 -0.09375 L 0.25 -0.28125 C 0.445312 -0.351562 0.585938 -0.421875 0.671875 -0.484375 C 0.765625 -0.554688 0.8125 -0.65625 0.8125 -0.78125 C 0.8125 -0.90625 0.78125 -1.078125 0.71875 -1.296875 L -0.6875 -5.953125 C -0.75 -6.191406 -0.816406 -6.359375 -0.890625 -6.453125 C -0.960938 -6.554688 -1.050781 -6.613281 -1.15625 -6.625 C -1.269531 -6.632812 -1.425781 -6.609375 -1.625 -6.546875 Z M 1.09375 -3.9375 C 1.363281 -4.019531 1.597656 -4.078125 1.796875 -4.109375 C 2.003906 -4.148438 2.179688 -4.1875 2.328125 -4.21875 C 2.484375 -4.25 2.628906 -4.273438 2.765625 -4.296875 C 3.335938 -4.421875 3.789062 -4.425781 4.125 -4.3125 C 4.457031 -4.207031 4.722656 -3.96875 4.921875 -3.59375 L 5.421875 -2.703125 C 5.554688 -2.472656 5.671875 -2.316406 5.765625 -2.234375 C 5.859375 -2.148438 5.96875 -2.128906 6.09375 -2.171875 C 6.164062 -2.191406 6.222656 -2.226562 6.265625 -2.28125 C 6.304688 -2.332031 6.347656 -2.40625 6.390625 -2.5 L 6.546875 -2.421875 C 6.441406 -2.171875 6.304688 -1.972656 6.140625 -1.828125 C 5.972656 -1.691406 5.753906 -1.578125 5.484375 -1.484375 C 5.140625 -1.390625 4.832031 -1.378906 4.5625 -1.453125 C 4.300781 -1.535156 4.078125 -1.765625 3.890625 -2.140625 L 3.453125 -3.03125 C 3.328125 -3.28125 3.203125 -3.488281 3.078125 -3.65625 C 2.953125 -3.832031 2.816406 -3.960938 2.671875 -4.046875 C 2.523438 -4.140625 2.359375 -4.15625 2.171875 -4.09375 L 1.15625 -3.796875 Z M 1.09375 -3.9375 "/></g></g></g><g fill="#dbceb9" fill-opacity="1"><g transform="translate(44.174848, 33.882689)"><g/></g></g><g fill="#dbceb9" fill-opacity="1"><g transform="translate(50.254222, 33.37798)"><g><path d="M 7.140625 -6.4375 L 7.125 -6.234375 C 6.96875 -6.191406 6.804688 -6.085938 6.640625 -5.921875 C 6.472656 -5.765625 6.300781 -5.503906 6.125 -5.140625 L 3.65625 0.28125 C 3.601562 0.28125 3.546875 0.273438 3.484375 0.265625 C 3.429688 0.265625 3.375 0.265625 3.3125 0.265625 C 3.257812 0.253906 3.203125 0.242188 3.140625 0.234375 C 3.085938 0.234375 3.035156 0.234375 2.984375 0.234375 L 0.953125 -6.0625 C 0.867188 -6.300781 0.773438 -6.46875 0.671875 -6.5625 C 0.578125 -6.664062 0.476562 -6.722656 0.375 -6.734375 L 0.390625 -6.9375 C 0.585938 -6.90625 0.816406 -6.875 1.078125 -6.84375 C 1.335938 -6.820312 1.601562 -6.804688 1.875 -6.796875 C 2.175781 -6.765625 2.457031 -6.742188 2.71875 -6.734375 C 2.988281 -6.722656 3.207031 -6.71875 3.375 -6.71875 L 3.359375 -6.515625 C 3.148438 -6.523438 2.984375 -6.515625 2.859375 -6.484375 C 2.734375 -6.453125 2.660156 -6.378906 2.640625 -6.265625 C 2.617188 -6.148438 2.648438 -5.972656 2.734375 -5.734375 L 4.15625 -1.078125 L 3.9375 -0.859375 L 5.546875 -4.375 C 5.765625 -4.851562 5.882812 -5.234375 5.90625 -5.515625 C 5.9375 -5.796875 5.882812 -6.003906 5.75 -6.140625 C 5.625 -6.273438 5.425781 -6.351562 5.15625 -6.375 L 5.171875 -6.578125 C 5.390625 -6.546875 5.59375 -6.519531 5.78125 -6.5 C 5.976562 -6.488281 6.175781 -6.472656 6.375 -6.453125 C 6.519531 -6.441406 6.660156 -6.429688 6.796875 -6.421875 C 6.929688 -6.421875 7.046875 -6.425781 7.140625 -6.4375 Z M 7.140625 -6.4375 "/></g></g></g><g fill="#dbceb9" fill-opacity="1"><g transform="translate(60.464802, 34.638989)"><g><path d="M 5.078125 -5.796875 L 5.03125 -5.59375 C 4.832031 -5.644531 4.675781 -5.664062 4.5625 -5.65625 C 4.445312 -5.65625 4.359375 -5.601562 4.296875 -5.5 C 4.234375 -5.394531 4.164062 -5.21875 4.09375 -4.96875 L 2.8125 -0.296875 C 2.75 -0.0664062 2.71875 0.109375 2.71875 0.234375 C 2.726562 0.359375 2.773438 0.453125 2.859375 0.515625 C 2.953125 0.578125 3.09375 0.632812 3.28125 0.6875 L 3.234375 0.890625 C 3.066406 0.835938 2.859375 0.769531 2.609375 0.6875 C 2.359375 0.613281 2.097656 0.539062 1.828125 0.46875 C 1.523438 0.382812 1.238281 0.304688 0.96875 0.234375 C 0.707031 0.171875 0.488281 0.125 0.3125 0.09375 L 0.359375 -0.109375 C 0.578125 -0.0546875 0.738281 -0.0351562 0.84375 -0.046875 C 0.957031 -0.0546875 1.046875 -0.113281 1.109375 -0.21875 C 1.179688 -0.320312 1.25 -0.488281 1.3125 -0.71875 L 2.59375 -5.390625 C 2.664062 -5.640625 2.695312 -5.820312 2.6875 -5.9375 C 2.6875 -6.0625 2.640625 -6.15625 2.546875 -6.21875 C 2.460938 -6.28125 2.316406 -6.335938 2.109375 -6.390625 L 2.15625 -6.59375 C 2.332031 -6.539062 2.550781 -6.472656 2.8125 -6.390625 C 3.070312 -6.316406 3.351562 -6.238281 3.65625 -6.15625 C 3.925781 -6.082031 4.1875 -6.007812 4.4375 -5.9375 C 4.695312 -5.875 4.910156 -5.828125 5.078125 -5.796875 Z M 5.078125 -5.796875 "/></g></g></g><g fill="#dbceb9" fill-opacity="1"><g transform="translate(67.575454, 36.830824)"><g><path d="M 3.421875 -6.046875 C 3.566406 -5.953125 3.757812 -5.84375 4 -5.71875 C 4.238281 -5.59375 4.484375 -5.46875 4.734375 -5.34375 C 5.015625 -5.207031 5.285156 -5.070312 5.546875 -4.9375 C 5.816406 -4.800781 6.007812 -4.707031 6.125 -4.65625 C 6.664062 -4.382812 7.082031 -4.097656 7.375 -3.796875 C 7.664062 -3.503906 7.84375 -3.195312 7.90625 -2.875 C 7.976562 -2.5625 7.9375 -2.242188 7.78125 -1.921875 C 7.675781 -1.722656 7.53125 -1.546875 7.34375 -1.390625 C 7.164062 -1.234375 6.9375 -1.117188 6.65625 -1.046875 C 6.375 -0.972656 6.035156 -0.96875 5.640625 -1.03125 C 5.242188 -1.101562 4.789062 -1.265625 4.28125 -1.515625 L 3.453125 -1.9375 L 3.546875 -2.109375 L 4.296875 -1.734375 C 4.640625 -1.554688 4.929688 -1.488281 5.171875 -1.53125 C 5.410156 -1.570312 5.617188 -1.679688 5.796875 -1.859375 C 5.972656 -2.046875 6.128906 -2.273438 6.265625 -2.546875 C 6.503906 -3.003906 6.601562 -3.398438 6.5625 -3.734375 C 6.53125 -4.078125 6.316406 -4.351562 5.921875 -4.5625 C 5.679688 -4.675781 5.503906 -4.695312 5.390625 -4.625 C 5.285156 -4.5625 5.15625 -4.375 5 -4.0625 L 2.8125 0.265625 C 2.707031 0.472656 2.640625 0.632812 2.609375 0.75 C 2.585938 0.875 2.613281 0.976562 2.6875 1.0625 C 2.769531 1.144531 2.90625 1.234375 3.09375 1.328125 L 3 1.515625 C 2.84375 1.421875 2.644531 1.3125 2.40625 1.1875 C 2.175781 1.0625 1.9375 0.9375 1.6875 0.8125 C 1.40625 0.675781 1.140625 0.546875 0.890625 0.421875 C 0.640625 0.304688 0.441406 0.210938 0.296875 0.140625 L 0.390625 -0.046875 C 0.578125 0.046875 0.722656 0.0976562 0.828125 0.109375 C 0.929688 0.128906 1.03125 0.09375 1.125 0 C 1.21875 -0.0820312 1.316406 -0.226562 1.421875 -0.4375 L 3.609375 -4.765625 C 3.722656 -4.992188 3.785156 -5.164062 3.796875 -5.28125 C 3.816406 -5.40625 3.789062 -5.507812 3.71875 -5.59375 C 3.644531 -5.6875 3.515625 -5.78125 3.328125 -5.875 Z M 3.515625 -2.09375 C 3.765625 -1.96875 3.972656 -1.847656 4.140625 -1.734375 C 4.316406 -1.628906 4.46875 -1.535156 4.59375 -1.453125 C 4.726562 -1.367188 4.847656 -1.289062 4.953125 -1.21875 C 5.460938 -0.90625 5.796875 -0.59375 5.953125 -0.28125 C 6.117188 0.0195312 6.148438 0.375 6.046875 0.78125 L 5.796875 1.765625 C 5.722656 2.023438 5.691406 2.21875 5.703125 2.34375 C 5.722656 2.46875 5.789062 2.554688 5.90625 2.609375 C 5.976562 2.648438 6.046875 2.664062 6.109375 2.65625 C 6.179688 2.644531 6.265625 2.628906 6.359375 2.609375 L 6.421875 2.75 C 6.171875 2.851562 5.9375 2.898438 5.71875 2.890625 C 5.5 2.878906 5.257812 2.8125 5 2.6875 C 4.6875 2.519531 4.457031 2.316406 4.3125 2.078125 C 4.175781 1.847656 4.171875 1.53125 4.296875 1.125 L 4.578125 0.171875 C 4.671875 -0.078125 4.726562 -0.304688 4.75 -0.515625 C 4.78125 -0.734375 4.773438 -0.921875 4.734375 -1.078125 C 4.691406 -1.242188 4.582031 -1.375 4.40625 -1.46875 L 3.453125 -1.9375 Z M 3.515625 -2.09375 "/></g></g></g><g fill="#dbceb9" fill-opacity="1"><g transform="translate(76.67726, 41.910292)"><g><path d="M 9.265625 -1.296875 C 9.035156 -1.054688 8.816406 -0.820312 8.609375 -0.59375 C 8.410156 -0.363281 8.257812 -0.1875 8.15625 -0.0625 C 8.070312 0.0390625 7.984375 0.144531 7.890625 0.25 C 7.804688 0.363281 7.742188 0.453125 7.703125 0.515625 L 7.53125 0.375 C 7.800781 -0.101562 7.976562 -0.515625 8.0625 -0.859375 C 8.144531 -1.210938 8.140625 -1.507812 8.046875 -1.75 C 7.960938 -2 7.804688 -2.21875 7.578125 -2.40625 L 7.40625 -2.546875 L 3.8125 1.734375 C 3.644531 1.941406 3.539062 2.113281 3.5 2.25 C 3.457031 2.382812 3.476562 2.515625 3.5625 2.640625 C 3.65625 2.765625 3.8125 2.921875 4.03125 3.109375 L 3.90625 3.265625 C 3.769531 3.128906 3.570312 2.945312 3.3125 2.71875 C 3.050781 2.5 2.78125 2.273438 2.5 2.046875 C 2.21875 1.804688 1.953125 1.585938 1.703125 1.390625 C 1.460938 1.191406 1.265625 1.035156 1.109375 0.921875 L 1.234375 0.765625 C 1.453125 0.953125 1.628906 1.078125 1.765625 1.140625 C 1.910156 1.203125 2.046875 1.203125 2.171875 1.140625 C 2.296875 1.078125 2.441406 0.941406 2.609375 0.734375 L 6.203125 -3.546875 L 6.03125 -3.6875 C 5.8125 -3.875 5.570312 -3.988281 5.3125 -4.03125 C 5.0625 -4.082031 4.773438 -4.035156 4.453125 -3.890625 C 4.128906 -3.742188 3.742188 -3.5 3.296875 -3.15625 L 3.125 -3.296875 C 3.1875 -3.359375 3.257812 -3.4375 3.34375 -3.53125 C 3.4375 -3.632812 3.523438 -3.738281 3.609375 -3.84375 C 3.710938 -3.96875 3.859375 -4.148438 4.046875 -4.390625 C 4.242188 -4.628906 4.4375 -4.890625 4.625 -5.171875 C 4.863281 -4.960938 5.113281 -4.742188 5.375 -4.515625 C 5.644531 -4.285156 5.914062 -4.050781 6.1875 -3.8125 C 6.46875 -3.582031 6.710938 -3.378906 6.921875 -3.203125 C 7.160156 -3.015625 7.414062 -2.804688 7.6875 -2.578125 C 7.957031 -2.347656 8.234375 -2.117188 8.515625 -1.890625 C 8.796875 -1.671875 9.046875 -1.472656 9.265625 -1.296875 Z M 9.265625 -1.296875 "/></g></g></g><g fill="#dbceb9" fill-opacity="1"><g transform="translate(84.237157, 48.744831)"><g><path d="M 9.5 1.0625 L 9.34375 1.1875 C 9.195312 1.03125 9.054688 0.929688 8.921875 0.890625 C 8.785156 0.859375 8.640625 0.878906 8.484375 0.953125 C 8.328125 1.035156 8.125 1.171875 7.875 1.359375 L 5.796875 2.9375 C 5.460938 3.1875 5.132812 3.394531 4.8125 3.5625 C 4.5 3.726562 4.195312 3.828125 3.90625 3.859375 C 3.570312 3.898438 3.238281 3.835938 2.90625 3.671875 C 2.582031 3.503906 2.269531 3.222656 1.96875 2.828125 C 1.789062 2.585938 1.632812 2.320312 1.5 2.03125 C 1.363281 1.75 1.296875 1.445312 1.296875 1.125 C 1.316406 0.851562 1.378906 0.601562 1.484375 0.375 C 1.585938 0.15625 1.75 -0.0546875 1.96875 -0.265625 C 2.195312 -0.484375 2.476562 -0.71875 2.8125 -0.96875 L 5.265625 -2.828125 C 5.460938 -2.972656 5.59375 -3.09375 5.65625 -3.1875 C 5.71875 -3.289062 5.734375 -3.394531 5.703125 -3.5 C 5.679688 -3.601562 5.609375 -3.738281 5.484375 -3.90625 L 5.640625 -4.03125 C 5.734375 -3.894531 5.859375 -3.710938 6.015625 -3.484375 C 6.179688 -3.265625 6.351562 -3.035156 6.53125 -2.796875 C 6.71875 -2.554688 6.894531 -2.328125 7.0625 -2.109375 C 7.238281 -1.890625 7.382812 -1.710938 7.5 -1.578125 L 7.34375 -1.453125 C 7.207031 -1.628906 7.085938 -1.75 6.984375 -1.8125 C 6.878906 -1.882812 6.769531 -1.898438 6.65625 -1.859375 C 6.550781 -1.816406 6.398438 -1.722656 6.203125 -1.578125 L 3.25 0.65625 C 3 0.851562 2.785156 1.039062 2.609375 1.21875 C 2.429688 1.40625 2.300781 1.585938 2.21875 1.765625 C 2.144531 1.941406 2.128906 2.125 2.171875 2.3125 C 2.210938 2.507812 2.3125 2.710938 2.46875 2.921875 C 2.738281 3.285156 3.039062 3.503906 3.375 3.578125 C 3.71875 3.660156 4.070312 3.628906 4.4375 3.484375 C 4.800781 3.335938 5.179688 3.113281 5.578125 2.8125 L 7.640625 1.25 C 7.929688 1.03125 8.132812 0.84375 8.25 0.6875 C 8.375 0.539062 8.429688 0.390625 8.421875 0.234375 C 8.410156 0.078125 8.332031 -0.113281 8.1875 -0.34375 L 8.34375 -0.46875 C 8.40625 -0.363281 8.492188 -0.226562 8.609375 -0.0625 C 8.734375 0.09375 8.847656 0.242188 8.953125 0.390625 C 9.046875 0.515625 9.140625 0.640625 9.234375 0.765625 C 9.335938 0.890625 9.425781 0.988281 9.5 1.0625 Z M 9.5 1.0625 "/></g></g></g><g fill="#dbceb9" fill-opacity="1"><g transform="translate(90.167293, 57.282678)"><g><path d="M 7.8125 0.453125 L 3.1875 5.125 C 3.007812 5.3125 2.90625 5.472656 2.875 5.609375 C 2.84375 5.753906 2.847656 5.867188 2.890625 5.953125 L 2.703125 6.03125 C 2.628906 5.851562 2.539062 5.640625 2.4375 5.390625 C 2.332031 5.140625 2.226562 4.890625 2.125 4.640625 C 2 4.367188 1.878906 4.113281 1.765625 3.875 C 1.648438 3.632812 1.554688 3.445312 1.484375 3.3125 L 1.671875 3.234375 C 1.816406 3.523438 1.953125 3.691406 2.078125 3.734375 C 2.203125 3.773438 2.390625 3.664062 2.640625 3.40625 L 6.125 0.03125 L 6.421875 0.09375 L 2.28125 0.3125 C 1.882812 0.320312 1.578125 0.359375 1.359375 0.421875 C 1.140625 0.492188 0.988281 0.582031 0.90625 0.6875 C 0.820312 0.800781 0.785156 0.929688 0.796875 1.078125 C 0.804688 1.234375 0.847656 1.398438 0.921875 1.578125 L 0.734375 1.65625 C 0.660156 1.457031 0.585938 1.265625 0.515625 1.078125 C 0.441406 0.898438 0.363281 0.71875 0.28125 0.53125 C 0.21875 0.394531 0.15625 0.269531 0.09375 0.15625 C 0.0390625 0.0507812 -0.0078125 -0.0390625 -0.0625 -0.125 L 0.125 -0.203125 C 0.207031 -0.0859375 0.34375 0 0.53125 0.0625 C 0.726562 0.125 1.015625 0.148438 1.390625 0.140625 L 7.53125 -0.171875 C 7.582031 -0.0664062 7.628906 0.0351562 7.671875 0.140625 C 7.722656 0.253906 7.769531 0.359375 7.8125 0.453125 Z M 4.328125 2.765625 L 4.140625 2.84375 L 2.953125 0.171875 L 3.171875 0.1875 Z M 4.328125 2.765625 "/></g></g></g><g fill="#dbceb9" fill-opacity="1"><g transform="translate(93.937935, 66.765382)"><g><path d="M 7.484375 1.96875 L 7.28125 2.015625 C 7.238281 1.796875 7.179688 1.628906 7.109375 1.515625 C 7.046875 1.410156 6.957031 1.351562 6.84375 1.34375 C 6.726562 1.332031 6.546875 1.351562 6.296875 1.40625 L 1.4375 2.390625 C 1.238281 2.429688 1.09375 2.472656 1 2.515625 C 0.914062 2.566406 0.863281 2.640625 0.84375 2.734375 C 0.820312 2.828125 0.832031 2.960938 0.875 3.140625 L 0.96875 3.59375 C 1.007812 3.820312 1.097656 4.019531 1.234375 4.1875 C 1.367188 4.351562 1.546875 4.492188 1.765625 4.609375 C 1.992188 4.722656 2.25 4.800781 2.53125 4.84375 C 2.820312 4.894531 3.128906 4.914062 3.453125 4.90625 L 3.5 5.140625 C 3.28125 5.160156 3 5.207031 2.65625 5.28125 C 2.507812 5.3125 2.289062 5.359375 2 5.421875 C 1.71875 5.484375 1.4375 5.5625 1.15625 5.65625 C 1.09375 5.320312 1.019531 4.953125 0.9375 4.546875 C 0.863281 4.140625 0.796875 3.773438 0.734375 3.453125 C 0.703125 3.296875 0.660156 3.09375 0.609375 2.84375 C 0.554688 2.59375 0.5 2.320312 0.4375 2.03125 C 0.375 1.75 0.3125 1.457031 0.25 1.15625 C 0.1875 0.863281 0.125 0.585938 0.0625 0.328125 L 0.265625 0.28125 C 0.316406 0.476562 0.367188 0.625 0.421875 0.71875 C 0.484375 0.820312 0.578125 0.878906 0.703125 0.890625 C 0.828125 0.898438 1.003906 0.882812 1.234375 0.84375 L 5.984375 -0.125 C 6.234375 -0.175781 6.40625 -0.234375 6.5 -0.296875 C 6.601562 -0.359375 6.664062 -0.441406 6.6875 -0.546875 C 6.707031 -0.660156 6.695312 -0.816406 6.65625 -1.015625 L 6.859375 -1.0625 C 6.878906 -0.90625 6.914062 -0.6875 6.96875 -0.40625 C 7.019531 -0.132812 7.078125 0.15625 7.140625 0.46875 C 7.203125 0.75 7.257812 1.019531 7.3125 1.28125 C 7.375 1.550781 7.429688 1.78125 7.484375 1.96875 Z M 7.484375 1.96875 "/></g></g></g><g fill="#dbceb9" fill-opacity="1"><g transform="translate(95.408165, 76.454665)"><g/></g></g><g fill="#dbceb9" fill-opacity="1"><g transform="translate(95.412538, 82.554751)"><g><path d="M 6.3125 4.640625 L -0.109375 6.03125 C -0.359375 6.09375 -0.535156 6.171875 -0.640625 6.265625 C -0.742188 6.367188 -0.804688 6.46875 -0.828125 6.5625 L -1.03125 6.53125 C -0.988281 6.332031 -0.941406 6.101562 -0.890625 5.84375 C -0.847656 5.582031 -0.804688 5.316406 -0.765625 5.046875 C -0.710938 4.742188 -0.664062 4.460938 -0.625 4.203125 C -0.59375 3.941406 -0.570312 3.734375 -0.5625 3.578125 L -0.359375 3.609375 C -0.398438 3.941406 -0.378906 4.160156 -0.296875 4.265625 C -0.210938 4.367188 0 4.378906 0.34375 4.296875 L 5.125 3.359375 L 5.328125 3.578125 L 1.734375 1.5 C 1.398438 1.300781 1.117188 1.164062 0.890625 1.09375 C 0.671875 1.03125 0.5 1.019531 0.375 1.0625 C 0.25 1.113281 0.148438 1.203125 0.078125 1.328125 C 0.00390625 1.460938 -0.046875 1.628906 -0.078125 1.828125 L -0.28125 1.796875 C -0.238281 1.578125 -0.195312 1.367188 -0.15625 1.171875 C -0.125 0.984375 -0.09375 0.789062 -0.0625 0.59375 C -0.0390625 0.445312 -0.0195312 0.3125 0 0.1875 C 0.0078125 0.0625 0.015625 -0.046875 0.015625 -0.140625 L 0.21875 -0.109375 C 0.21875 0.0234375 0.28125 0.175781 0.40625 0.34375 C 0.53125 0.507812 0.757812 0.6875 1.09375 0.875 L 6.421875 3.96875 C 6.398438 4.082031 6.378906 4.195312 6.359375 4.3125 C 6.347656 4.425781 6.332031 4.535156 6.3125 4.640625 Z M 2.125 4.6875 L 1.921875 4.65625 L 2.375 1.765625 L 2.5625 1.890625 Z M 2.125 4.6875 "/></g></g></g><g fill="#dbceb9" fill-opacity="1"><g transform="translate(93.402711, 92.559739)"><g><path d="M 5.203125 5.734375 L 5.015625 5.65625 C 5.085938 5.445312 5.128906 5.28125 5.140625 5.15625 C 5.148438 5.039062 5.101562 4.941406 5 4.859375 C 4.90625 4.773438 4.742188 4.6875 4.515625 4.59375 L -0.109375 2.78125 C -0.296875 2.707031 -0.4375 2.664062 -0.53125 2.65625 C -0.632812 2.65625 -0.71875 2.6875 -0.78125 2.75 C -0.851562 2.820312 -0.921875 2.941406 -0.984375 3.109375 L -1.15625 3.53125 C -1.238281 3.75 -1.265625 3.960938 -1.234375 4.171875 C -1.210938 4.390625 -1.140625 4.609375 -1.015625 4.828125 C -0.898438 5.046875 -0.734375 5.253906 -0.515625 5.453125 C -0.304688 5.648438 -0.0625 5.832031 0.21875 6 L 0.140625 6.203125 C -0.0546875 6.117188 -0.320312 6.007812 -0.65625 5.875 C -0.789062 5.820312 -0.992188 5.742188 -1.265625 5.640625 C -1.535156 5.546875 -1.816406 5.453125 -2.109375 5.359375 C -1.972656 5.054688 -1.828125 4.710938 -1.671875 4.328125 C -1.515625 3.941406 -1.378906 3.597656 -1.265625 3.296875 C -1.203125 3.140625 -1.125 2.941406 -1.03125 2.703125 C -0.9375 2.472656 -0.835938 2.21875 -0.734375 1.9375 C -0.628906 1.664062 -0.519531 1.390625 -0.40625 1.109375 C -0.300781 0.828125 -0.207031 0.5625 -0.125 0.3125 L 0.0625 0.390625 C 0 0.578125 -0.03125 0.726562 -0.03125 0.84375 C -0.03125 0.957031 0.015625 1.050781 0.109375 1.125 C 0.203125 1.195312 0.351562 1.273438 0.5625 1.359375 L 5.09375 3.140625 C 5.320312 3.234375 5.5 3.285156 5.625 3.296875 C 5.75 3.304688 5.847656 3.269531 5.921875 3.1875 C 5.992188 3.101562 6.066406 2.96875 6.140625 2.78125 L 6.328125 2.859375 C 6.253906 2.992188 6.164062 3.191406 6.0625 3.453125 C 5.957031 3.710938 5.847656 3.988281 5.734375 4.28125 C 5.628906 4.550781 5.523438 4.8125 5.421875 5.0625 C 5.328125 5.320312 5.253906 5.546875 5.203125 5.734375 Z M 5.203125 5.734375 "/></g></g></g><g fill="#dbceb9" fill-opacity="1"><g transform="translate(89.492013, 101.412332)"><g><path d="M 3.859375 6.703125 L 3.6875 6.578125 C 3.8125 6.398438 3.890625 6.25 3.921875 6.125 C 3.953125 6.007812 3.929688 5.90625 3.859375 5.8125 C 3.785156 5.71875 3.644531 5.597656 3.4375 5.453125 L -0.6875 2.703125 C -0.851562 2.585938 -0.988281 2.515625 -1.09375 2.484375 C -1.195312 2.460938 -1.285156 2.476562 -1.359375 2.53125 C -1.429688 2.582031 -1.519531 2.679688 -1.625 2.828125 L -1.875 3.21875 C -2 3.40625 -2.070312 3.609375 -2.09375 3.828125 C -2.125 4.046875 -2.101562 4.269531 -2.03125 4.5 C -1.957031 4.738281 -1.835938 4.976562 -1.671875 5.21875 C -1.503906 5.457031 -1.300781 5.691406 -1.0625 5.921875 L -1.1875 6.109375 C -1.351562 5.972656 -1.585938 5.804688 -1.890625 5.609375 C -2.003906 5.523438 -2.179688 5.398438 -2.421875 5.234375 C -2.671875 5.078125 -2.929688 4.929688 -3.203125 4.796875 C -3.003906 4.523438 -2.785156 4.21875 -2.546875 3.875 C -2.316406 3.53125 -2.113281 3.222656 -1.9375 2.953125 C -1.84375 2.816406 -1.722656 2.640625 -1.578125 2.421875 C -1.429688 2.210938 -1.28125 1.984375 -1.125 1.734375 C -0.96875 1.492188 -0.804688 1.25 -0.640625 1 C -0.472656 0.75 -0.320312 0.503906 -0.1875 0.265625 L -0.015625 0.375 C -0.117188 0.5625 -0.1875 0.707031 -0.21875 0.8125 C -0.25 0.925781 -0.222656 1.03125 -0.140625 1.125 C -0.0546875 1.21875 0.078125 1.332031 0.265625 1.46875 L 4.296875 4.15625 C 4.503906 4.300781 4.664062 4.390625 4.78125 4.421875 C 4.90625 4.453125 5.007812 4.429688 5.09375 4.359375 C 5.1875 4.296875 5.289062 4.175781 5.40625 4 L 5.578125 4.125 C 5.472656 4.257812 5.34375 4.441406 5.1875 4.671875 C 5.039062 4.898438 4.878906 5.144531 4.703125 5.40625 C 4.546875 5.644531 4.390625 5.878906 4.234375 6.109375 C 4.078125 6.335938 3.953125 6.535156 3.859375 6.703125 Z M 3.859375 6.703125 "/></g></g></g><g fill="#dbceb9" fill-opacity="1"><g transform="translate(83.794283, 109.233633)"><g><path d="M 0.46875 9.203125 L 0.328125 9.0625 C 0.390625 8.914062 0.414062 8.726562 0.40625 8.5 C 0.394531 8.269531 0.332031 7.960938 0.21875 7.578125 L -0.984375 3.65625 L -0.65625 3.34375 L 3.9375 4.796875 C 4.175781 4.890625 4.351562 4.925781 4.46875 4.90625 C 4.582031 4.882812 4.664062 4.847656 4.71875 4.796875 L 4.875 4.953125 C 4.726562 5.066406 4.582031 5.179688 4.4375 5.296875 C 4.300781 5.421875 4.15625 5.566406 4 5.734375 C 3.789062 5.921875 3.566406 6.132812 3.328125 6.375 C 3.097656 6.613281 2.894531 6.832031 2.71875 7.03125 L 2.5625 6.875 C 2.675781 6.757812 2.769531 6.648438 2.84375 6.546875 C 2.925781 6.441406 2.960938 6.34375 2.953125 6.25 C 2.941406 6.164062 2.859375 6.097656 2.703125 6.046875 L -0.484375 4.984375 L -0.53125 4.484375 L 0.15625 6.640625 C 0.289062 7.160156 0.445312 7.519531 0.625 7.71875 C 0.800781 7.914062 0.976562 8.003906 1.15625 7.984375 C 1.34375 7.960938 1.539062 7.863281 1.75 7.6875 L 1.890625 7.828125 C 1.722656 7.984375 1.566406 8.125 1.421875 8.25 C 1.273438 8.382812 1.128906 8.519531 0.984375 8.65625 C 0.878906 8.757812 0.785156 8.859375 0.703125 8.953125 C 0.617188 9.046875 0.539062 9.128906 0.46875 9.203125 Z M -0.421875 5.265625 L -2.125 3.5 C -2.28125 3.332031 -2.410156 3.210938 -2.515625 3.140625 C -2.628906 3.078125 -2.738281 3.066406 -2.84375 3.109375 C -2.945312 3.160156 -3.078125 3.253906 -3.234375 3.390625 L -3.375 3.25 C -3.238281 3.132812 -3.066406 2.976562 -2.859375 2.78125 C -2.660156 2.59375 -2.460938 2.40625 -2.265625 2.21875 C -2.046875 2.007812 -1.835938 1.804688 -1.640625 1.609375 C -1.441406 1.421875 -1.289062 1.269531 -1.1875 1.15625 L -1.046875 1.296875 C -1.191406 1.441406 -1.285156 1.5625 -1.328125 1.65625 C -1.378906 1.757812 -1.375 1.867188 -1.3125 1.984375 C -1.257812 2.097656 -1.15625 2.238281 -1 2.40625 L 0.390625 3.84375 L -0.65625 4 Z M -0.421875 5.265625 "/></g></g></g></g></g></g><g transform="matrix(1, 0, 0, 1, 23, 34)"><g clip-path="url(#3b70f58bc6)"><g fill="#dbceb9" fill-opacity="1"><g transform="translate(1.156317, 109.159696)"><g><path d="M 85.390625 -61.265625 C 92.941406 -61.265625 98.941406 -59.035156 103.390625 -54.578125 C 107.847656 -50.128906 110.078125 -43.457031 110.078125 -34.5625 L 110.078125 0 L 92.5625 0 L 92.5625 -31.859375 C 92.5625 -36.648438 91.570312 -40.222656 89.59375 -42.578125 C 87.613281 -44.929688 84.789062 -46.109375 81.125 -46.109375 C 77.007812 -46.109375 73.753906 -44.78125 71.359375 -42.125 C 68.960938 -39.476562 67.765625 -35.535156 67.765625 -30.296875 L 67.765625 0 L 50.265625 0 L 50.265625 -31.859375 C 50.265625 -41.359375 46.453125 -46.109375 38.828125 -46.109375 C 34.785156 -46.109375 31.566406 -44.78125 29.171875 -42.125 C 26.773438 -39.476562 25.578125 -35.535156 25.578125 -30.296875 L 25.578125 0 L 8.078125 0 L 8.078125 -60.359375 L 24.796875 -60.359375 L 24.796875 -53.40625 C 27.035156 -55.945312 29.78125 -57.890625 33.03125 -59.234375 C 36.289062 -60.585938 39.867188 -61.265625 43.765625 -61.265625 C 48.023438 -61.265625 51.875 -60.421875 55.3125 -58.734375 C 58.757812 -57.054688 61.53125 -54.609375 63.625 -51.390625 C 66.09375 -54.523438 69.210938 -56.953125 72.984375 -58.671875 C 76.765625 -60.398438 80.898438 -61.265625 85.390625 -61.265625 Z M 85.390625 -61.265625 "/></g></g></g></g></g><g transform="matrix(1, 0, 0, 1, 108, 62)"><g clip-path="url(#e5f0c4942b)"><g fill="#5c5646" fill-opacity="1"><g transform="translate(0.409339, 109.824478)"><g><path d="M 44.839844 -65.574219 C 53.476562 -65.574219 60.507812 -62.929688 65.933594 -57.632812 C 71.386719 -52.3125 74.117188 -44.636719 74.117188 -34.613281 L 74.117188 4.214844 L 48.15625 4.214844 L 48.15625 -31.917969 C 48.15625 -35.644531 47.460938 -38.289062 46.074219 -39.847656 C 44.8125 -41.265625 42.828125 -41.972656 40.121094 -41.972656 C 36.898438 -41.972656 34.390625 -41.039062 32.597656 -39.171875 C 30.757812 -37.25 29.835938 -34.160156 29.835938 -29.894531 L 29.835938 4.214844 L 3.878906 4.214844 L 3.878906 -64.675781 L 29.050781 -64.675781 L 29.050781 -53.382812 L 24.835938 -53.382812 L 21.722656 -56.222656 C 24.476562 -59.242188 27.875 -61.566406 31.917969 -63.191406 C 35.867188 -64.78125 40.175781 -65.574219 44.839844 -65.574219 Z M 44.839844 -57.144531 C 41.261719 -57.144531 38.003906 -56.554688 35.0625 -55.371094 C 32.210938 -54.226562 29.839844 -52.613281 27.949219 -50.542969 L 20.621094 -42.503906 L 20.621094 -60.460938 L 24.835938 -60.460938 L 24.835938 -56.246094 L 8.089844 -56.246094 L 8.089844 -60.460938 L 12.304688 -60.460938 L 12.304688 0 L 8.089844 0 L 8.089844 -4.214844 L 25.621094 -4.214844 L 25.621094 0 L 21.410156 0 L 21.410156 -29.894531 C 21.410156 -36.417969 23.109375 -41.453125 26.515625 -45.003906 C 29.964844 -48.601562 34.5 -50.402344 40.121094 -50.402344 C 45.351562 -50.402344 49.4375 -48.75 52.371094 -45.449219 C 55.179688 -42.289062 56.585938 -37.78125 56.585938 -31.917969 L 56.585938 0 L 52.371094 0 L 52.371094 -4.214844 L 69.902344 -4.214844 L 69.902344 0 L 65.6875 0 L 65.6875 -34.613281 C 65.6875 -42.269531 63.808594 -47.933594 60.046875 -51.601562 C 56.257812 -55.296875 51.1875 -57.144531 44.839844 -57.144531 Z M 44.839844 -57.144531 "/></g></g></g><g fill="#dbceb9" fill-opacity="1"><g transform="translate(0.409339, 109.824478)"><g><path d="M 44.84375 -61.359375 C 52.332031 -61.359375 58.378906 -59.109375 62.984375 -54.609375 C 67.585938 -50.117188 69.890625 -43.453125 69.890625 -34.609375 L 69.890625 0 L 52.359375 0 L 52.359375 -31.921875 C 52.359375 -36.710938 51.3125 -40.285156 49.21875 -42.640625 C 47.125 -45.003906 44.09375 -46.1875 40.125 -46.1875 C 35.695312 -46.1875 32.171875 -44.816406 29.546875 -42.078125 C 26.929688 -39.347656 25.625 -35.285156 25.625 -29.890625 L 25.625 0 L 8.09375 0 L 8.09375 -60.453125 L 24.828125 -60.453125 L 24.828125 -53.375 C 27.148438 -55.925781 30.035156 -57.894531 33.484375 -59.28125 C 36.929688 -60.664062 40.71875 -61.359375 44.84375 -61.359375 Z M 44.84375 -61.359375 "/></g></g></g></g></g></svg>